<svg xmlns="http://www.w3.org/2000/svg" width="50" height="50.001"><path d="M25.482 22.622l3.86 2.102-7.028 3.797-.001-5.847v-1.777l3.169 1.725zM50 25c0 13.808-11.193 25.001-25 25.001S0 38.808 0 25C0 11.193 11.193 0 25 0s25 11.193 25 25zm-11.988-1.033c0-2.196-.261-4.392-.261-4.392s-.254-1.872-1.033-2.695c-.99-1.079-2.099-1.085-2.606-1.148-3.644-.272-9.105-.272-9.105-.272h-.012s-5.464 0-9.104.274c-.509.062-1.616.067-2.608 1.147-.779.824-1.033 2.695-1.033 2.695s-.261 2.194-.261 4.391v2.058c0 2.197.261 4.393.261 4.393s.254 1.87 1.033 2.693c.992 1.081 2.293 1.046 2.871 1.158 2.081.208 8.846.273 8.846.273s5.467-.01 9.111-.282c.507-.063 1.616-.068 2.606-1.15.779-.822 1.033-2.692 1.033-2.692s.261-2.195.261-4.393v-2.058z" fill="#d60b0b"/></svg>